<?xml version="1.0" standalone="no"?>
<!DOCTYPE svg PUBLIC "-//W3C//DTD SVG 20010904//EN"
 "http://www.w3.org/TR/2001/REC-SVG-20010904/DTD/svg10.dtd">
<svg version="1.0" xmlns="http://www.w3.org/2000/svg"
 width="647.000000pt" height="647.000000pt" viewBox="0 0 647.000000 647.000000"
 preserveAspectRatio="xMidYMid meet">
<metadata>
Created by potrace 1.11, written by Peter Selinger 2001-2013
</metadata>
<g transform="translate(0.000000,647.000000) scale(0.100000,-0.100000)"
fill="#000000" stroke="none">
<path d="M1400 3306 c0 -1658 3 -3022 6 -3030 5 -13 9 -14 21 -4 8 7 22 13 30
14 8 1 22 6 31 10 9 4 20 8 24 8 3 1 10 4 14 8 4 5 16 8 26 8 10 0 18 4 18 10
0 5 3 9 8 8 12 -4 102 26 102 34 0 4 7 5 15 2 8 -4 15 -1 15 6 0 6 5 8 10 5 6
-4 16 -3 23 2 7 5 31 15 54 23 25 8 40 17 36 24 -3 6 0 5 7 -1 10 -10 17 -10
28 -1 8 7 19 13 26 14 6 1 25 8 41 15 17 7 36 11 43 10 6 -1 12 3 12 9 0 5 3
9 8 9 4 -1 10 0 15 1 15 5 27 8 43 9 8 0 12 6 9 11 -4 6 -3 10 2 9 26 -4 63 2
58 11 -3 5 0 7 8 4 8 -3 17 2 20 10 4 9 13 12 28 9 15 -4 20 -3 15 5 -5 8 -2
10 9 6 8 -4 31 1 50 11 20 9 45 18 56 20 12 2 27 9 35 16 8 6 14 8 14 4 0 -4
6 -2 13 4 8 6 17 8 20 4 4 -3 7 -2 7 3 0 5 10 10 22 11 11 1 24 6 27 10 3 4
12 8 19 9 39 3 43 5 36 16 -4 7 -3 8 4 4 7 -4 18 -4 25 1 6 4 14 8 17 8 20 3
56 20 62 29 6 8 8 8 8 -1 0 -8 6 -8 25 0 14 7 25 15 25 19 0 4 7 4 17 1 12 -5
14 -3 8 7 -6 9 -4 11 4 5 7 -4 23 -3 34 3 22 10 58 24 67 26 3 1 12 6 20 11 8
5 20 10 25 10 22 2 71 18 83 28 6 5 12 6 12 1 0 -4 5 -3 12 4 7 7 20 12 30 12
32 0 93 44 83 61 -2 3 -4 50 -5 105 -1 88 -2 1657 -1 1694 0 8 0 116 0 240 0
124 -1 232 -1 240 1 8 1 330 1 715 0 385 0 773 1 862 0 129 -2 164 -14 176 -8
8 -12 18 -8 22 4 5 2 5 -4 2 -6 -3 -18 3 -27 14 -10 11 -22 17 -27 14 -6 -3
-10 1 -10 10 0 9 -4 13 -10 10 -10 -6 -15 9 -10 30 1 5 -2 7 -5 3 -4 -4 -24 5
-44 20 -50 38 -61 49 -54 56 6 6 -12 9 -22 4 -2 -2 -16 12 -31 29 -15 18 -30
30 -35 27 -5 -3 -9 0 -9 6 0 5 -15 19 -32 30 -18 11 -29 20 -24 20 6 0 1 6 -9
14 -11 8 -23 12 -27 10 -4 -3 -5 2 -2 11 4 9 3 15 -2 13 -5 -1 -20 6 -32 17
-68 57 -78 65 -85 65 -5 0 -5 5 -1 12 5 8 2 9 -9 5 -10 -3 -17 -2 -17 4 0 15
-26 39 -34 32 -3 -4 -6 2 -6 13 0 16 -2 17 -10 4 -8 -13 -10 -12 -10 3 0 9 -4
17 -8 17 -4 0 -25 16 -45 35 -20 19 -42 35 -48 35 -5 0 -7 5 -4 10 3 6 -1 10
-9 10 -8 0 -22 9 -30 21 -8 12 -19 18 -25 14 -7 -3 -10 -3 -9 2 5 15 -35 51
-50 45 -9 -3 -13 -1 -9 5 3 5 -4 19 -16 29 -76 66 -115 93 -122 86 -5 -4 -5
-2 -2 4 6 10 -30 50 -51 56 -4 2 -6 6 -4 11 1 4 -3 7 -9 7 -6 0 -16 6 -24 13
-37 35 -100 82 -108 79 -5 -1 -6 1 -3 6 5 8 -27 42 -40 42 -3 0 -16 10 -29 23
-58 54 -84 75 -89 69 -3 -3 -6 2 -6 11 0 16 -12 22 -35 17 -5 -1 -7 1 -3 5 7
7 -14 35 -26 35 -3 0 -16 10 -29 23 -46 43 -109 97 -114 97 -2 0 -14 10 -27
23 -31 30 -65 57 -71 57 -3 0 -5 -1356 -5 -3014z"/>
<path d="M5070 6310 c0 -5 -6 -10 -13 -10 -7 0 -23 -13 -37 -30 -14 -16 -28
-30 -32 -30 -5 0 -16 -8 -27 -17 -44 -43 -81 -70 -86 -65 -3 3 -5 -3 -5 -13 0
-10 -3 -16 -6 -12 -4 3 -21 -9 -39 -28 -18 -18 -36 -31 -39 -28 -3 4 -6 1 -6
-5 0 -7 -7 -12 -16 -12 -8 0 -13 -4 -10 -8 3 -5 -8 -16 -25 -26 -16 -9 -27
-22 -23 -27 3 -5 0 -8 -8 -7 -7 2 -12 -2 -11 -9 2 -7 -4 -10 -12 -7 -10 4 -15
0 -15 -11 0 -9 -4 -14 -9 -10 -6 3 -14 -3 -20 -12 -6 -10 -11 -15 -11 -11 0 4
-20 -12 -45 -36 -24 -24 -47 -41 -50 -38 -3 3 -5 -1 -5 -8 0 -7 -3 -11 -6 -8
-3 3 -20 -9 -38 -28 -18 -19 -38 -34 -45 -34 -6 0 -11 -7 -11 -16 0 -8 -4 -13
-9 -9 -6 3 -15 -4 -21 -15 -6 -11 -16 -19 -23 -17 -7 1 -11 -6 -11 -15 1 -10
-1 -16 -5 -15 -12 3 -70 -37 -65 -45 3 -4 0 -8 -5 -8 -11 0 -38 -20 -77 -57
-13 -13 -26 -23 -29 -23 -12 0 -34 -28 -28 -34 4 -3 -2 -6 -11 -6 -10 0 -36
-18 -58 -40 -23 -22 -48 -40 -57 -41 -12 0 -12 -2 -3 -6 10 -4 7 -9 -10 -17
-12 -7 -22 -18 -20 -25 1 -7 -2 -9 -8 -6 -6 4 -24 -7 -40 -23 -16 -17 -31 -27
-35 -24 -3 3 -8 -4 -12 -17 -3 -13 -11 -20 -19 -17 -8 3 -14 -1 -14 -9 0 -7
-9 -17 -20 -20 -11 -3 -20 -10 -20 -15 0 -5 -9 -12 -20 -15 -11 -4 -18 -11
-15 -16 4 -5 -1 -9 -9 -9 -9 0 -16 -5 -16 -11 0 -5 -4 -7 -10 -4 -5 3 -10 -1
-10 -10 0 -9 -3 -14 -7 -12 -11 7 -33 -19 -25 -28 4 -4 3 -6 -3 -4 -18 4 -45
-13 -45 -29 0 -8 -3 -13 -6 -9 -9 9 -44 -25 -37 -36 3 -6 1 -7 -5 -3 -6 4 -26
-7 -43 -24 -18 -16 -36 -30 -41 -30 -5 0 -7 -4 -4 -9 3 -5 -5 -12 -19 -15 -14
-4 -24 -12 -22 -18 1 -7 -3 -12 -8 -13 -6 0 -20 -10 -32 -22 l-23 -23 0 -1007
c0 -912 -1 -2602 -1 -2878 0 -163 0 -175 9 -173 4 1 17 -3 30 -10 12 -7 22
-10 22 -6 0 3 11 -1 25 -10 14 -9 25 -14 25 -10 0 4 6 2 13 -3 6 -6 20 -9 30
-8 9 2 17 -1 17 -6 0 -5 9 -9 20 -9 11 0 20 -4 20 -10 0 -5 11 -10 25 -10 14
0 25 -5 25 -11 0 -8 6 -7 17 2 9 8 14 9 10 3 -7 -11 17 -23 56 -28 11 -2 22
-7 25 -12 4 -5 16 -10 27 -12 11 -2 35 -10 53 -18 18 -8 37 -12 44 -8 7 4 8 3
4 -4 -6 -10 11 -15 40 -11 4 0 10 -5 14 -11 4 -7 19 -12 34 -12 14 0 23 -4 20
-9 -3 -5 5 -10 18 -11 13 0 28 -2 35 -2 6 -1 20 -9 30 -19 11 -9 22 -14 26
-11 4 4 18 -1 32 -10 14 -9 30 -14 35 -11 6 3 10 1 10 -5 0 -6 4 -9 9 -5 5 3
13 0 16 -6 4 -5 13 -8 21 -5 7 3 19 0 26 -7 7 -7 22 -14 33 -15 11 -2 22 -8
23 -13 2 -6 10 -5 18 2 11 9 15 8 20 -4 3 -9 12 -18 20 -21 9 -4 12 -2 8 5 -3
6 5 3 19 -6 15 -9 30 -14 36 -11 5 3 11 1 13 -4 2 -6 13 -12 26 -13 12 0 22
-5 22 -9 0 -4 9 -8 19 -8 11 0 23 -5 27 -11 4 -8 9 -7 15 2 7 11 9 10 9 -3 0
-11 6 -16 20 -13 11 2 20 0 20 -4 0 -4 6 -8 13 -8 6 0 29 -8 50 -17 20 -9 37
-13 37 -9 0 5 4 4 8 -2 11 -15 56 -39 47 -25 -5 8 -2 9 11 2 11 -5 33 -15 49
-22 17 -7 38 -16 48 -22 10 -5 22 -6 27 -3 6 4 10 0 10 -7 0 -9 3 -9 10 2 8
13 10 12 10 -4 0 -13 5 -17 20 -13 11 3 20 1 20 -5 0 -5 4 -7 9 -4 5 4 11 2
13 -4 1 -5 12 -11 23 -13 11 -1 26 -6 33 -10 9 -7 12 600 12 3022 0 1667 -2
3031 -5 3031 -3 0 -5 -4 -5 -10z"/>
</g>
</svg>
